<svg width="134" height="30" viewBox="0 0 134 30" fill="none" xmlns="http://www.w3.org/2000/svg">
<path d="M7.28125 27.5L9.3125 18.7188L2.5 12.8125L11.5 12.0312L15 3.75L18.5 12.0312L27.5 12.8125L20.6875 18.7188L22.7188 27.5L15 22.8438L7.28125 27.5Z" fill="#E2D226"/>
<path d="M33.2812 27.5L35.3125 18.7188L28.5 12.8125L37.5 12.0312L41 3.75L44.5 12.0312L53.5 12.8125L46.6875 18.7188L48.7188 27.5L41 22.8438L33.2812 27.5Z" fill="#E2D226"/>
<path d="M59.2812 27.5L61.3125 18.7188L54.5 12.8125L63.5 12.0312L67 3.75L70.5 12.0312L79.5 12.8125L72.6875 18.7188L74.7188 27.5L67 22.8438L59.2812 27.5Z" fill="#E2D226"/>
<path d="M85.2812 27.5L87.3125 18.7188L80.5 12.8125L89.5 12.0312L93 3.75L96.5 12.0312L105.5 12.8125L98.6875 18.7188L100.719 27.5L93 22.8438L85.2812 27.5Z" fill="#E2D226"/>
<path d="M111.281 27.5L113.313 18.7188L106.5 12.8125L115.5 12.0312L119 3.75L122.5 12.0312L131.5 12.8125L124.688 18.7188L126.719 27.5L119 22.8438L111.281 27.5Z" fill="#E2D226"/>
</svg>
